<mxfile host="app.diagrams.net" agent="Mozilla/5.0 (Windows NT 10.0; Win64; x64) AppleWebKit/537.36 (KHTML, like Gecko) Chrome/131.0.0.0 Safari/537.36" version="25.0.3">
  <diagram id="C5RBs43oDa-KdzZeNtuy" name="Page-1">
    <mxGraphModel dx="1050" dy="653" grid="1" gridSize="10" guides="1" tooltips="1" connect="1" arrows="1" fold="1" page="1" pageScale="1" pageWidth="827" pageHeight="1169" math="0" shadow="0">
      <root>
        <mxCell id="WIyWlLk6GJQsqaUBKTNV-0" />
        <mxCell id="WIyWlLk6GJQsqaUBKTNV-1" parent="WIyWlLk6GJQsqaUBKTNV-0" />
        <mxCell id="qkGlnQJSzhBUAgJRoiqr-6" style="edgeStyle=orthogonalEdgeStyle;rounded=0;orthogonalLoop=1;jettySize=auto;html=1;entryX=0.5;entryY=0;entryDx=0;entryDy=0;" edge="1" parent="WIyWlLk6GJQsqaUBKTNV-1" source="qkGlnQJSzhBUAgJRoiqr-0" target="qkGlnQJSzhBUAgJRoiqr-2">
          <mxGeometry relative="1" as="geometry" />
        </mxCell>
        <mxCell id="qkGlnQJSzhBUAgJRoiqr-0" value="Start" style="strokeWidth=2;html=1;shape=mxgraph.flowchart.start_1;whiteSpace=wrap;" vertex="1" parent="WIyWlLk6GJQsqaUBKTNV-1">
          <mxGeometry x="175" y="30" width="100" height="60" as="geometry" />
        </mxCell>
        <mxCell id="qkGlnQJSzhBUAgJRoiqr-1" value="End." style="strokeWidth=2;html=1;shape=mxgraph.flowchart.start_1;whiteSpace=wrap;" vertex="1" parent="WIyWlLk6GJQsqaUBKTNV-1">
          <mxGeometry x="450" y="510" width="100" height="60" as="geometry" />
        </mxCell>
        <mxCell id="qkGlnQJSzhBUAgJRoiqr-2" value="a" style="shape=parallelogram;html=1;strokeWidth=2;perimeter=parallelogramPerimeter;whiteSpace=wrap;rounded=1;arcSize=12;size=0.23;" vertex="1" parent="WIyWlLk6GJQsqaUBKTNV-1">
          <mxGeometry x="175" y="160" width="100" height="60" as="geometry" />
        </mxCell>
        <mxCell id="qkGlnQJSzhBUAgJRoiqr-3" value="a là số chẵn" style="strokeWidth=2;html=1;shape=mxgraph.flowchart.display;whiteSpace=wrap;" vertex="1" parent="WIyWlLk6GJQsqaUBKTNV-1">
          <mxGeometry x="450" y="290" width="100" height="60" as="geometry" />
        </mxCell>
        <mxCell id="qkGlnQJSzhBUAgJRoiqr-4" value="a là số lẻ" style="strokeWidth=2;html=1;shape=mxgraph.flowchart.display;whiteSpace=wrap;" vertex="1" parent="WIyWlLk6GJQsqaUBKTNV-1">
          <mxGeometry x="250" y="510" width="100" height="60" as="geometry" />
        </mxCell>
        <mxCell id="qkGlnQJSzhBUAgJRoiqr-5" value="a mod 2 = 0" style="strokeWidth=2;html=1;shape=mxgraph.flowchart.decision;whiteSpace=wrap;" vertex="1" parent="WIyWlLk6GJQsqaUBKTNV-1">
          <mxGeometry x="170" y="270" width="110" height="100" as="geometry" />
        </mxCell>
        <mxCell id="qkGlnQJSzhBUAgJRoiqr-7" style="edgeStyle=orthogonalEdgeStyle;rounded=0;orthogonalLoop=1;jettySize=auto;html=1;entryX=0.5;entryY=0;entryDx=0;entryDy=0;entryPerimeter=0;" edge="1" parent="WIyWlLk6GJQsqaUBKTNV-1" source="qkGlnQJSzhBUAgJRoiqr-2" target="qkGlnQJSzhBUAgJRoiqr-5">
          <mxGeometry relative="1" as="geometry" />
        </mxCell>
        <mxCell id="qkGlnQJSzhBUAgJRoiqr-8" style="edgeStyle=orthogonalEdgeStyle;rounded=0;orthogonalLoop=1;jettySize=auto;html=1;entryX=0;entryY=0.5;entryDx=0;entryDy=0;entryPerimeter=0;" edge="1" parent="WIyWlLk6GJQsqaUBKTNV-1" source="qkGlnQJSzhBUAgJRoiqr-5" target="qkGlnQJSzhBUAgJRoiqr-3">
          <mxGeometry relative="1" as="geometry" />
        </mxCell>
        <mxCell id="qkGlnQJSzhBUAgJRoiqr-9" style="edgeStyle=orthogonalEdgeStyle;rounded=0;orthogonalLoop=1;jettySize=auto;html=1;entryX=0;entryY=0.5;entryDx=0;entryDy=0;entryPerimeter=0;" edge="1" parent="WIyWlLk6GJQsqaUBKTNV-1" source="qkGlnQJSzhBUAgJRoiqr-5" target="qkGlnQJSzhBUAgJRoiqr-4">
          <mxGeometry relative="1" as="geometry" />
        </mxCell>
        <mxCell id="qkGlnQJSzhBUAgJRoiqr-10" style="edgeStyle=orthogonalEdgeStyle;rounded=0;orthogonalLoop=1;jettySize=auto;html=1;entryX=0;entryY=0.5;entryDx=0;entryDy=0;entryPerimeter=0;" edge="1" parent="WIyWlLk6GJQsqaUBKTNV-1" source="qkGlnQJSzhBUAgJRoiqr-4" target="qkGlnQJSzhBUAgJRoiqr-1">
          <mxGeometry relative="1" as="geometry" />
        </mxCell>
        <mxCell id="qkGlnQJSzhBUAgJRoiqr-11" style="edgeStyle=orthogonalEdgeStyle;rounded=0;orthogonalLoop=1;jettySize=auto;html=1;entryX=0.5;entryY=0;entryDx=0;entryDy=0;entryPerimeter=0;" edge="1" parent="WIyWlLk6GJQsqaUBKTNV-1" source="qkGlnQJSzhBUAgJRoiqr-3" target="qkGlnQJSzhBUAgJRoiqr-1">
          <mxGeometry relative="1" as="geometry" />
        </mxCell>
        <mxCell id="qkGlnQJSzhBUAgJRoiqr-13" value="True" style="text;html=1;align=center;verticalAlign=middle;resizable=0;points=[];autosize=1;strokeColor=none;fillColor=none;" vertex="1" parent="WIyWlLk6GJQsqaUBKTNV-1">
          <mxGeometry x="325" y="288" width="50" height="30" as="geometry" />
        </mxCell>
        <mxCell id="qkGlnQJSzhBUAgJRoiqr-14" value="False" style="text;html=1;align=center;verticalAlign=middle;resizable=0;points=[];autosize=1;strokeColor=none;fillColor=none;" vertex="1" parent="WIyWlLk6GJQsqaUBKTNV-1">
          <mxGeometry x="230" y="418" width="50" height="30" as="geometry" />
        </mxCell>
      </root>
    </mxGraphModel>
  </diagram>
</mxfile>
